<?xml version="1.0" standalone="no"?>
<!DOCTYPE svg PUBLIC "-//W3C//DTD SVG 20010904//EN"
 "http://www.w3.org/TR/2001/REC-SVG-20010904/DTD/svg10.dtd">
<svg version="1.0" xmlns="http://www.w3.org/2000/svg"
 width="512.000000pt" height="512.000000pt" viewBox="0 0 512.000000 512.000000"
 preserveAspectRatio="xMidYMid meet">
<metadata>
Created by potrace 1.14, written by Peter Selinger 2001-2017
</metadata>
<g transform="translate(0.000000,512.000000) scale(0.100000,-0.100000)"
fill="#000000" stroke="none">
<path d="M549 4996 c-2 -2 -17 -6 -34 -9 -132 -22 -282 -140 -343 -270 -18
-37 -36 -86 -42 -109 -6 -27 -9 -771 -10 -2033 0 -1609 3 -2001 13 -2045 44
-182 186 -327 367 -374 47 -13 341 -15 2040 -15 1324 0 2003 3 2040 10 183 35
349 198 389 384 7 34 10 666 11 2036 0 1748 -2 1992 -15 2045 -49 189 -205
339 -390 373 -41 8 -661 11 -2040 11 -1090 0 -1984 -2 -1986 -4z"/>
</g>
</svg>
